<svg xmlns="http://www.w3.org/2000/svg" width="165.52107" height="105.9651" viewBox="0 0 165.52107 105.9651" aria-labelledby="apple-pay-title">
  <title id="apple-pay-title">Apple Pay</title>
  <path d="M150.698 0H14.823c-.566 0-1.133 0-1.698.003-.478.004-.954.009-1.43.022-1.039.028-2.087.089-3.113.274-1.042.187-2.012.493-2.959.975-.93.473-1.782 1.092-2.52 1.83-.738.739-1.357 1.589-1.83 2.52-.482.947-.788 1.917-.974 2.96-.186 1.026-.247 2.074-.275 3.112-.013.476-.019.953-.022 1.429-.003.566-.002 1.132-.002 1.699v76.318c0 .567-.001 1.132.002 1.699.003.476.009.953.022 1.429.028 1.037.089 2.085.275 3.111.186 1.044.492 2.014.974 2.96.473.931 1.092 1.783 1.83 2.52.738.74 1.59 1.358 2.52 1.83.947.483 1.917.789 2.959.977 1.026.183 2.074.245 3.113.273.476.011.952.017 1.43.019.565.005 1.132.005 1.698.005h135.875c.565 0 1.132 0 1.697-.005.476-.002.953-.008 1.431-.019 1.037-.028 2.085-.09 3.113-.273 1.041-.188 2.011-.494 2.958-.977.931-.472 1.78-1.09 2.52-1.83.737-.737 1.356-1.589 1.83-2.52.483-.946.789-1.916.974-2.96.186-1.026.246-2.074.274-3.111.013-.476.019-.953.022-1.429.004-.567.004-1.132.004-1.699V14.824c0-.567 0-1.133-.004-1.699-.003-.476-.009-.953-.022-1.429-.028-1.038-.088-2.086-.274-3.112-.185-1.043-.491-2.013-.974-2.96-.474-.931-1.093-1.781-1.83-2.52-.74-.738-1.589-1.357-2.52-1.83-.947-.482-1.917-.788-2.958-.975-1.028-.185-2.076-.246-3.113-.274-.478-.013-.955-.018-1.431-.022C151.83 0 151.263 0 150.698 0Z"/>
  <path fill="#fff" d="m150.698 3.532 1.672.003c.452.003.905.008 1.36.021.792.021 1.719.064 2.582.219.751.135 1.38.34 1.985.648.596.303 1.143.7 1.62 1.177.479.48.877 1.027 1.184 1.63.306.6.51 1.226.644 1.983.155.854.197 1.783.219 2.58.012.45.018.899.02 1.36.005.557.005 1.113.005 1.671v76.318c0 .558 0 1.114-.005 1.683-.002.449-.008.899-.02 1.35-.022.795-.065 1.724-.221 2.588-.132.746-.337 1.373-.644 1.975-.307.602-.704 1.148-1.181 1.625-.48.48-1.024.876-1.628 1.182-.6.306-1.228.511-1.972.645-.881.157-1.846.2-2.573.22-.457.01-.913.016-1.379.018-.556.005-1.113.005-1.669.005H14.823c-.007 0-.015 0-.022-.001-.549 0-1.1 0-1.659-.004-.456-.002-.911-.008-1.351-.018-.744-.02-1.71-.063-2.584-.219-.749-.135-1.378-.34-1.986-.65-.598-.303-1.142-.699-1.622-1.18-.477-.475-.873-1.02-1.179-1.623-.306-.602-.511-1.23-.646-1.985-.156-.863-.198-1.787-.22-2.578-.012-.452-.017-.905-.02-1.354l-.002-1.328v-.351l.002-75.97c.003-.452.008-.905.02-1.357.022-.791.064-1.716.222-2.586.133-.748.338-1.376.646-1.981.304-.598.7-1.144 1.179-1.623.477-.477 1.023-.873 1.625-1.179.601-.306 1.231-.512 1.98-.646.864-.156 1.791-.198 2.585-.22.453-.012.905-.017 1.355-.02l1.677-.004h135.875Z"/>
  <path d="M45.186 35.641c1.417-1.773 2.379-4.153 2.126-6.585-2.075.103-4.607 1.368-6.073 3.143-1.316 1.519-2.48 3.999-2.177 6.328 2.329.203 4.656-1.164 6.124-2.886Zm2.099 3.342c-3.382-.202-6.258 1.919-7.873 1.919-1.616 0-4.089-1.818-6.764-1.769-3.482.051-6.713 2.02-8.48 5.151-3.634 6.263-.959 15.554 2.575 20.656 1.716 2.524 3.784 5.303 6.51 5.203 2.574-.102 3.583-1.668 6.713-1.668 3.128 0 4.037 1.668 6.763 1.617 2.826-.051 4.593-2.525 6.31-5.051 1.968-2.877 2.774-5.655 2.825-5.808-.05-.05-5.451-2.122-5.5-8.333-.051-5.201 4.239-7.675 4.44-7.829-2.422-3.584-6.207-3.988-7.52-4.09ZM76.734 31.944c7.351 0 12.47 5.067 12.47 12.444 0 7.404-5.225 12.497-12.654 12.497h-8.14v12.943h-5.88V31.944h14.204Zm-8.323 20.005h6.747c5.12 0 8.034-2.756 8.034-7.534 0-4.778-2.914-7.508-8.008-7.508h-6.773v15.042Zm22.329 10.03c0-4.832 3.702-7.798 10.266-8.166l7.56-.446v-2.126c0-3.072-2.074-4.91-5.539-4.91-3.282 0-5.33 1.575-5.829 4.043h-5.355c.315-4.989 4.568-8.664 11.394-8.664 6.695 0 10.974 3.544 10.974 9.084v19.034h-5.435v-4.542h-.13c-1.602 3.072-5.094 5.015-8.717 5.015-5.408 0-9.189-3.361-9.189-8.322Zm17.826-2.494v-2.18l-6.8.42c-3.387.236-5.303 1.733-5.303 4.096 0 2.415 1.995 3.99 5.041 3.99 3.964 0 7.062-2.73 7.062-6.326Zm10.776 20.504v-4.595c.419.105 1.364.105 1.837.105 2.625 0 4.043-1.102 4.909-3.938 0-.052.499-1.68.499-1.706l-9.976-27.646h6.143l6.984 22.474h.104l6.985-22.474h5.985l-10.345 29.063c-2.361 6.695-5.092 8.848-10.815 8.848-.473 0-1.891-.053-2.31-.131Z"/>
</svg>
