<svg xmlns="http://www.w3.org/2000/svg" viewBox="0 0 380 112" role="img" aria-labelledby="logo-title logo-description">
  <title id="logo-title">Surplasse</title>
  <desc id="logo-description">Un repère de localisation au-dessus d'une table, suivi du nom Surplasse.</desc>
  <rect x="4" y="4" width="104" height="104" rx="26" fill="#2b2118"/>
  <g transform="translate(0 0) scale(.875)" fill="none" stroke="#fff7ef" stroke-width="8" stroke-linecap="square" stroke-linejoin="miter">
    <path d="M86 39C83 27 75 20 64 20C48 20 37 31 37 46C37 55 42 62 49 70L64 87L80 68L86 56"/>
    <path d="M27 82L31 110H48"/>
    <path d="M101 82L97 110H80"/>
  </g>
  <circle cx="56" cy="39.38" r="7.88" fill="#e8481c"/>
  <ellipse cx="56" cy="82.25" rx="23.63" ry="5.25" fill="#fff7ef"/>
  <path d="M56 86.63V99.75" stroke="#fff7ef" stroke-width="5.25"/>
  <path fill="#2b2118" d="M132.81 82.87Q128.9 82.87 126.24 81.65Q123.59 80.44 121.87 78.35L118.73 82.58H118.58V70.69H118.73Q119.23 73.26 120.24 75.44Q121.26 77.63 122.89 79.25Q124.53 80.86 126.86 81.76Q129.19 82.66 132.34 82.66Q135.42 82.66 137.73 81.56Q140.05 80.46 141.35 78.3Q142.65 76.15 142.65 73Q142.65 70.45 141.38 68.68Q140.1 66.91 138.02 65.61Q135.93 64.3 133.42 63.17Q130.92 62.04 128.41 60.83Q125.9 59.61 123.81 58Q121.73 56.39 120.45 54.13Q119.18 51.87 119.18 48.65Q119.18 45.46 120.84 43.04Q122.51 40.62 125.24 39.27Q127.96 37.92 131.18 37.92Q134.14 37.92 136.52 38.85Q138.9 39.77 140.58 41.74L143.7 37.92H143.85V49.81H143.69Q143.11 45.8 141.48 43.22Q139.84 40.65 137.35 39.42Q134.86 38.19 131.76 38.19Q127.59 38.19 125.42 40.26Q123.24 42.33 123.24 45.77Q123.24 48.06 124.49 49.67Q125.73 51.28 127.76 52.51Q129.79 53.74 132.24 54.86Q134.69 55.97 137.14 57.26Q139.59 58.55 141.62 60.29Q143.65 62.03 144.9 64.47Q146.15 66.92 146.15 70.4Q146.15 74.17 144.52 76.97Q142.9 79.77 139.9 81.32Q136.9 82.87 132.81 82.87Z M162.01 82.58Q158.61 82.58 156.85 81.43Q155.08 80.29 154.43 78.32Q153.78 76.34 153.78 73.82V55.47H150.26V55.32H158.97V73.18Q158.97 75.61 159.17 77.69Q159.38 79.77 160.13 81.04Q160.89 82.3 162.51 82.3Q165.58 82.3 167.39 80.86Q169.2 79.42 170.06 77.21Q170.93 75 171.18 72.6Q171.44 70.2 171.44 68.26L171.6 67.97Q171.6 70.03 171.36 72.53Q171.12 75.04 170.23 77.33Q169.34 79.62 167.39 81.1Q165.44 82.58 162.01 82.58ZM171.44 82V55.47H167.38V55.32H176.69V81.85H180.18V82Z M192.44 69.08Q192.44 66.37 192.77 63.81Q193.09 61.26 193.92 59.21Q194.74 57.16 196.22 55.95Q197.71 54.74 200 54.74Q201.62 54.74 202.79 55.39Q203.97 56.04 204.6 57.11Q205.24 58.18 205.24 59.45Q205.24 60.93 204.35 61.95Q203.47 62.96 201.88 62.96Q200.23 62.96 199.31 62.07Q198.4 61.17 198.4 59.86Q198.4 58.16 199.5 57.29Q200.6 56.42 201.85 56.42Q202.8 56.42 203.57 56.84Q204.34 57.26 204.77 57.93Q205.21 58.61 205.21 59.45H205.08Q205.08 58.22 204.46 57.19Q203.84 56.16 202.7 55.53Q201.57 54.9 199.99 54.9Q197.72 54.9 196.27 56.11Q194.82 57.33 194.02 59.37Q193.21 61.41 192.89 63.95Q192.58 66.48 192.58 69.08ZM192.58 55.32V81.85H196.08V82H183.87V81.85H187.39V55.47H183.87V55.32Z M208.46 96.5V96.35H211.98V55.47H208.46V55.32H217.17V65.85Q217.68 60.53 220.02 57.67Q222.36 54.8 226.26 54.8Q229.42 54.8 232.23 56.45Q235.03 58.1 236.79 61.21Q238.54 64.31 238.54 68.66Q238.54 73.01 236.79 76.13Q235.03 79.25 232.23 80.91Q229.42 82.58 226.26 82.58Q222.36 82.58 220.02 79.67Q217.68 76.76 217.17 71.47V96.35H220.66V96.5ZM225.35 82.13Q227.78 82.13 229.35 80.39Q230.92 78.64 231.69 75.59Q232.46 72.55 232.46 68.66Q232.46 64.77 231.69 61.74Q230.92 58.71 229.35 56.98Q227.78 55.25 225.35 55.25Q223.1 55.25 221.24 56.75Q219.38 58.26 218.28 61.24Q217.17 64.21 217.17 68.66Q217.17 73.11 218.28 76.1Q219.38 79.09 221.24 80.61Q223.1 82.13 225.35 82.13Z M252.99 38.5V81.85H257.64V82H243.12V81.85H247.8V38.65H243.12V38.5Z M283.77 82.58Q282.41 82.58 281.19 82.21Q279.98 81.85 279.21 80.77Q278.45 79.7 278.45 77.64V64.34Q278.45 62.25 278.14 60.13Q277.83 58 276.74 56.59Q275.66 55.18 273.34 55.18Q271.72 55.18 270.14 55.58Q268.55 55.98 267.23 56.72Q265.92 57.45 265.12 58.47Q264.33 59.5 264.33 60.77H264.22Q264.22 59.29 265.19 58.44Q266.16 57.58 267.32 57.58Q268.57 57.58 269.6 58.38Q270.63 59.18 270.63 60.66Q270.63 62.4 269.57 63.18Q268.51 63.96 267.32 63.96Q265.99 63.96 265.07 63.15Q264.16 62.34 264.16 60.77Q264.16 59.41 265.02 58.32Q265.87 57.23 267.34 56.47Q268.81 55.7 270.66 55.28Q272.52 54.86 274.49 54.86Q278.49 54.86 280.45 56.25Q282.41 57.64 283.03 59.81Q283.66 61.99 283.66 64.34V79.33Q283.66 80.37 284.08 81.14Q284.49 81.9 285.73 81.9Q286.74 81.9 287.96 80.93Q289.18 79.96 289.9 78.33L290 78.43Q289.25 80.26 287.58 81.42Q285.91 82.58 283.77 82.58ZM270.4 82.58Q266.63 82.58 264.38 80.65Q262.13 78.72 262.13 75.42Q262.13 71.53 265.4 69.45Q268.66 67.37 274.84 67.37H281.14V67.52H274.84Q272.29 67.52 270.82 68.78Q269.35 70.03 268.72 71.79Q268.1 73.56 268.1 75.15Q268.1 76.6 268.45 78.17Q268.8 79.74 269.67 80.82Q270.55 81.9 272.05 81.9Q273.79 81.9 275.24 80.84Q276.7 79.79 277.57 77.5Q278.45 75.22 278.45 71.53H278.58Q278.58 74.83 277.76 77.33Q276.94 79.82 275.15 81.2Q273.35 82.58 270.4 82.58Z M292.8 82.58V74.45H292.96Q293.02 76.61 294.45 78.42Q295.88 80.23 298.13 81.3Q300.38 82.37 302.88 82.37Q304.62 82.37 306.25 81.84Q307.88 81.32 308.93 80.12Q309.99 78.92 309.99 76.88Q309.99 75.02 308.8 73.98Q307.61 72.93 305.74 72.28Q303.86 71.63 301.74 71Q299.63 70.38 297.75 69.44Q295.87 68.49 294.69 66.87Q293.5 65.25 293.5 62.56Q293.5 60.71 294.38 58.92Q295.27 57.14 297.06 55.97Q298.86 54.8 301.61 54.8Q303.73 54.8 305.46 55.49Q307.2 56.19 308.45 57.31L311.04 54.74H311.19V62.86H311.03Q311.03 60.98 309.81 59.16Q308.6 57.35 306.49 56.15Q304.39 54.95 301.67 54.95Q300 54.95 298.66 55.46Q297.32 55.97 296.53 56.95Q295.73 57.93 295.73 59.35Q295.73 61.08 296.99 62.12Q298.25 63.17 300.23 63.89Q302.21 64.62 304.42 65.3Q306.63 65.98 308.62 66.98Q310.6 67.98 311.85 69.59Q313.11 71.2 313.11 73.77Q313.11 76.35 311.81 78.34Q310.51 80.32 308.26 81.45Q306.02 82.58 303.21 82.58Q301.01 82.58 299.07 81.86Q297.14 81.13 295.69 79.89L292.95 82.58Z M318.55 82.58V74.45H318.71Q318.78 76.61 320.21 78.42Q321.63 80.23 323.88 81.3Q326.13 82.37 328.64 82.37Q330.37 82.37 332 81.84Q333.63 81.32 334.69 80.12Q335.74 78.92 335.74 76.88Q335.74 75.02 334.55 73.98Q333.37 72.93 331.49 72.28Q329.61 71.63 327.5 71Q325.38 70.38 323.51 69.44Q321.63 68.49 320.44 66.87Q319.25 65.25 319.25 62.56Q319.25 60.71 320.14 58.92Q321.02 57.14 322.82 55.97Q324.61 54.8 327.37 54.8Q329.48 54.8 331.21 55.49Q332.95 56.19 334.2 57.31L336.79 54.74H336.94V62.86H336.79Q336.78 60.98 335.57 59.16Q334.35 57.35 332.24 56.15Q330.14 54.95 327.42 54.95Q325.75 54.95 324.41 55.46Q323.07 55.97 322.28 56.95Q321.48 57.93 321.48 59.35Q321.48 61.08 322.74 62.12Q324 63.17 325.98 63.89Q327.96 64.62 330.17 65.3Q332.39 65.98 334.37 66.98Q336.35 67.98 337.61 69.59Q338.86 71.2 338.86 73.77Q338.86 76.35 337.56 78.34Q336.26 80.32 334.01 81.45Q331.77 82.58 328.96 82.58Q326.76 82.58 324.83 81.86Q322.89 81.13 321.44 79.89L318.7 82.58Z M357.57 82.58Q353.77 82.58 350.71 80.91Q347.66 79.25 345.86 76.13Q344.06 73.01 344.06 68.66Q344.06 64.31 345.82 61.19Q347.57 58.08 350.58 56.41Q353.59 54.74 357.38 54.74Q361.7 54.74 364.34 56.46Q366.97 58.19 368.17 60.97Q369.37 63.75 369.37 66.91H347.95V66.76H363.22Q363.25 65.06 363.05 63.03Q362.85 61 362.26 59.14Q361.66 57.28 360.49 56.09Q359.32 54.89 357.38 54.89Q355.24 54.89 353.84 56.09Q352.43 57.29 351.62 59.3Q350.82 61.31 350.48 63.74Q350.15 66.17 350.15 68.66Q350.15 71.13 350.48 73.57Q350.82 76.01 351.67 77.99Q352.53 79.97 354.05 81.17Q355.57 82.37 357.94 82.37Q362.44 82.37 365.32 79.84Q368.21 77.31 369.28 73.73H369.44Q368.31 77.49 365.36 80.04Q362.4 82.58 357.57 82.58Z"/>
</svg>
