<?xml version="1.0" encoding="UTF-8"?>
<svg xmlns="http://www.w3.org/2000/svg" width="906" height="198" viewBox="0 0 906 198" role="img" aria-labelledby="title desc">
  <title id="title">Surplasse — logo horizontal</title>
  <desc id="desc">Logo vectoriel Surplasse, symbole restaurant et localisation avec logotype. Tous les éléments sont des tracés.</desc>
  <g transform="translate(-24 -24)">
    <g id="surplasse-icon">
      <path id="icon-background" d="M 64.000 220.296 C 46.148 218.336 30.208 203.880 26.061 185.888 C 24.301 178.254 24.682 66.641 26.492 59.693 C 30.838 43.006 42.135 31.167 58.107 26.559 C 63.053 25.132 71.014 24.974 125.607 25.221 C 187.114 25.498 187.535 25.514 193.042 27.744 C 204.273 32.291 214.288 42.643 219.182 54.761 L 221.500 60.500 L 221.788 120.461 C 221.974 159.394 221.710 182.127 221.033 185.283 C 217.283 202.767 202.148 217.116 184.387 220.024 C 178.892 220.924 71.922 221.165 64.000 220.296 Z" fill="#FA550C" fill-rule="evenodd"/>
      <path id="icon-symbol" d="M 62.523 193.750 C 60.602 187.957 53.965 148.110 54.698 146.767 C 55.516 145.266 61.529 148.741 63.270 151.722 C 64.262 153.421 65.940 159.916 66.998 166.156 C 68.056 172.395 69.212 178.922 69.568 180.661 L 70.214 183.822 L 80.857 184.449 C 96.180 185.351 97.550 185.677 100.440 189.111 C 105.324 194.915 105.071 195.000 82.969 195.000 C 67.831 195.000 62.836 194.695 62.523 193.750 Z M 123.500 194.048 C 121.746 193.567 121.480 192.577 121.339 186.000 L 121.177 178.500 L 116.839 178.260 C 93.277 176.957 78.080 174.557 76.425 171.878 C 73.056 166.428 106.296 162.208 138.206 164.034 C 162.708 165.437 174.773 168.695 169.618 172.518 C 166.259 175.009 146.300 177.975 132.789 177.992 L 126.078 178.000 L 125.789 186.298 C 125.519 194.047 125.368 194.559 123.500 194.048 Z M 145.000 193.187 C 145.000 192.190 146.344 190.087 147.986 188.514 C 150.813 185.805 151.649 185.603 163.736 184.718 C 170.756 184.204 176.782 183.333 177.126 182.784 C 177.470 182.234 178.786 175.440 180.051 167.686 C 182.147 154.839 182.624 153.299 185.426 150.342 C 187.117 148.557 189.400 146.963 190.500 146.799 C 193.419 146.363 192.955 151.453 187.357 181.250 L 184.774 195.000 L 164.887 195.000 C 146.351 195.000 145.000 194.877 145.000 193.187 Z M 121.872 155.109 C 121.117 154.068 113.398 144.572 104.718 134.006 C 87.937 113.579 85.852 110.367 83.495 101.320 C 74.319 66.089 111.408 38.020 144.313 55.294 C 153.483 60.108 161.775 70.623 163.601 79.753 C 164.291 83.203 163.423 83.893 156.494 85.398 C 153.624 86.022 153.410 85.832 151.759 81.184 C 145.927 64.764 126.433 57.589 109.842 65.757 C 98.700 71.242 93.464 80.342 94.215 92.913 C 94.804 102.769 96.301 105.530 109.650 121.392 C 115.618 128.482 121.424 135.400 122.554 136.765 L 124.608 139.246 L 134.619 126.873 C 146.527 112.154 150.259 106.779 152.059 101.750 C 152.798 99.688 153.649 98.026 153.951 98.057 C 154.253 98.088 156.209 100.358 158.299 103.100 L 162.098 108.086 L 159.096 113.293 C 154.963 120.463 125.596 157.000 123.965 157.000 C 123.569 157.000 122.627 156.149 121.872 155.109 Z" fill="#FAF7F2" fill-rule="evenodd"/>
      <path id="icon-dot" d="M 116.299 105.040 C 108.146 100.069 107.780 87.251 115.615 81.088 C 121.642 76.348 133.612 79.435 136.560 86.490 C 142.199 99.986 128.532 112.500 116.299 105.040 Z" fill="#181818" fill-rule="evenodd"/>
    </g>
    <path id="surplasse-wordmark" d="M 510.000 160.500 L 510.000 103.000 L 518.000 103.000 L 526.000 103.000 L 526.000 107.000 C 526.000 111.605 526.284 111.768 529.292 108.879 C 536.054 102.385 550.704 99.976 561.357 103.606 C 586.016 112.008 591.893 155.506 570.928 174.446 C 559.818 184.483 542.745 185.745 530.497 177.433 C 528.525 176.095 526.706 175.000 526.456 175.000 C 526.205 175.000 526.000 184.675 526.000 196.500 L 526.000 218.000 L 518.000 218.000 L 510.000 218.000 L 510.000 160.500 Z M 886.000 182.395 C 858.405 175.005 849.550 134.500 870.608 111.987 C 883.231 98.493 906.854 97.632 919.692 110.199 C 924.893 115.291 928.117 122.586 928.772 130.750 L 929.274 137.000 L 902.494 137.000 L 875.714 137.000 L 876.260 144.750 C 877.259 158.921 884.017 170.602 893.510 174.569 C 902.787 178.445 916.109 175.050 923.433 166.943 C 929.243 160.511 930.805 161.762 926.143 169.114 C 918.092 181.809 902.756 186.883 886.000 182.395 Z M 290.000 181.461 C 286.425 180.701 279.225 177.925 274.000 175.290 L 264.500 170.500 L 264.213 162.438 L 263.925 154.376 L 272.713 163.016 C 285.281 175.374 291.895 178.500 305.479 178.500 C 321.804 178.500 331.000 171.266 331.000 158.425 C 331.000 147.210 324.474 141.142 299.000 128.671 C 281.438 120.073 274.894 115.519 270.319 108.713 C 261.983 96.311 264.677 79.774 276.500 70.775 C 289.591 60.810 312.499 60.345 331.119 69.667 L 340.000 74.113 L 340.000 81.189 L 340.000 88.265 L 332.180 80.794 C 322.091 71.155 315.419 67.809 305.095 67.212 C 285.913 66.101 275.089 79.740 282.596 95.560 C 285.038 100.707 290.828 104.574 311.755 115.033 C 338.739 128.519 345.975 136.122 345.985 151.000 C 345.990 159.724 344.657 163.990 340.138 169.703 C 331.232 180.965 310.527 185.820 290.000 181.461 Z M 379.994 182.066 C 372.413 179.760 366.028 173.898 363.888 167.277 C 363.079 164.778 362.527 153.269 362.256 133.250 L 361.846 103.000 L 369.835 103.000 L 377.824 103.000 L 378.259 133.250 C 378.737 166.572 379.134 169.154 384.503 173.868 C 392.474 180.867 404.507 178.185 412.089 167.719 L 415.000 163.700 L 415.000 133.350 L 415.000 103.000 L 423.000 103.000 L 431.000 103.000 L 431.000 142.000 L 431.000 181.000 L 423.000 181.000 L 415.000 181.000 L 415.000 175.437 L 415.000 169.875 L 409.640 174.601 C 406.691 177.200 402.304 180.128 399.890 181.108 C 395.323 182.960 384.627 183.475 379.994 182.066 Z M 649.764 182.063 C 632.153 176.382 630.077 154.035 646.284 144.587 C 650.442 142.163 653.419 141.126 673.875 134.981 L 684.249 131.864 L 683.787 123.889 C 683.062 111.365 677.343 105.527 666.456 106.197 C 658.108 106.710 652.132 110.369 646.155 118.625 L 641.500 125.054 L 641.199 118.912 C 640.837 111.506 641.768 110.204 650.427 106.009 C 666.256 98.340 686.434 100.424 694.815 110.592 C 699.402 116.157 700.000 120.447 700.000 147.794 C 700.000 177.493 700.516 179.884 706.750 179.075 C 708.954 178.788 708.086 180.640 705.453 181.839 C 697.555 185.438 687.555 181.943 684.923 174.665 L 683.753 171.428 L 680.685 174.294 C 673.267 181.223 658.592 184.911 649.764 182.063 Z M 731.236 181.036 C 728.341 179.978 724.178 178.104 721.986 176.872 L 718.000 174.632 L 718.000 168.229 L 718.000 161.825 L 724.087 168.008 C 731.640 175.679 739.052 179.343 746.954 179.311 C 757.311 179.269 763.993 174.049 763.993 166.000 C 763.993 158.453 759.847 155.169 738.765 146.020 C 723.295 139.306 718.111 132.604 719.247 120.782 C 720.910 103.479 745.917 95.531 766.255 105.841 L 771.500 108.500 L 771.806 113.868 L 772.113 119.235 L 766.296 114.176 C 752.687 102.340 737.680 101.686 732.801 112.718 C 728.882 121.577 733.041 126.581 750.432 133.931 C 764.126 139.720 768.837 142.581 772.295 147.211 C 780.862 158.679 776.822 172.972 763.000 180.092 C 756.649 183.364 739.039 183.887 731.236 181.036 Z M 805.000 181.641 C 802.525 180.968 798.025 179.086 795.000 177.459 L 789.500 174.500 L 789.200 168.750 C 789.035 165.588 789.222 163.000 789.615 163.000 C 790.008 163.000 793.157 165.715 796.613 169.033 C 804.266 176.382 810.184 179.200 817.964 179.200 C 831.356 179.200 839.013 169.093 833.040 159.299 C 830.809 155.639 828.918 154.529 812.840 147.441 C 798.935 141.311 795.895 139.082 792.541 132.554 C 784.411 116.728 797.388 101.267 818.500 101.626 C 826.176 101.756 834.699 103.907 839.750 106.988 C 842.734 108.808 843.000 109.389 843.000 114.078 L 843.000 119.185 L 837.750 114.445 C 824.364 102.357 809.310 101.764 803.743 113.105 C 799.992 120.747 804.190 126.848 816.722 131.967 C 837.368 140.399 842.700 143.926 846.093 151.397 C 851.427 163.142 844.158 177.500 830.881 181.443 C 824.678 183.285 811.417 183.386 805.000 181.641 Z M 451.000 142.000 L 451.000 103.000 L 459.000 103.000 L 467.000 103.000 L 467.039 111.250 C 467.076 119.111 467.143 119.352 468.447 116.355 C 470.252 112.205 476.591 105.263 480.348 103.320 C 483.380 101.752 491.899 101.202 493.909 102.444 C 494.509 102.815 495.000 105.555 495.000 108.534 C 495.000 113.935 494.993 113.948 492.435 112.975 C 483.563 109.602 471.289 114.810 468.067 123.315 C 467.405 125.060 467.000 136.559 467.000 153.565 L 467.000 181.000 L 459.000 181.000 L 451.000 181.000 L 451.000 142.000 Z M 601.000 127.450 C 601.000 81.541 600.784 73.482 599.483 70.967 C 597.959 68.020 593.438 65.000 590.550 65.000 C 589.697 65.000 589.000 64.550 589.000 64.000 C 589.000 63.381 594.333 63.000 603.000 63.000 L 617.000 63.000 L 617.000 122.000 L 617.000 181.000 L 609.000 181.000 L 601.000 181.000 L 601.000 127.450 Z M 551.571 177.107 C 561.429 172.630 566.503 160.680 566.480 142.000 C 566.464 129.261 564.874 122.261 560.452 115.459 C 553.298 104.457 539.840 103.056 529.395 112.226 L 526.000 115.207 L 526.000 142.651 L 526.000 170.095 L 528.750 172.683 C 535.230 178.781 544.100 180.500 551.571 177.107 Z M 674.711 174.898 C 683.160 170.808 684.000 168.615 684.000 150.656 C 684.000 142.045 683.854 135.000 683.675 135.000 C 682.419 135.000 668.620 140.146 664.981 141.972 C 650.838 149.068 646.832 164.032 656.490 173.690 C 660.618 177.818 667.708 178.288 674.711 174.898 Z M 912.779 127.156 C 910.489 95.152 881.601 97.606 876.348 130.250 L 875.744 134.000 L 894.507 134.000 L 913.269 134.000 L 912.779 127.156 Z" fill="#FA550C" fill-rule="evenodd"/>
  </g>
</svg>
