<?xml version="1.0" encoding="UTF-8"?>
<svg xmlns="http://www.w3.org/2000/svg" width="1024" height="1024" viewBox="0 0 512 512" role="img" aria-labelledby="title desc">
  <title id="title">Surplasse — icône d’application</title>
  <desc id="desc">Icône vectorielle orange Surplasse avec repère de localisation, table et deux sièges.</desc>
  <g transform="translate(1.7986 0) scale(1.19906323) translate(-15 -16)">
    <path d="M 98.500 441.904 C 60.644 436.363 28.236 406.183 17.672 366.632 L 15.500 358.500 L 15.500 229.500 L 15.500 100.500 L 17.745 91.693 C 26.815 56.109 51.307 30.326 86.500 19.316 L 95.500 16.500 L 224.226 16.225 C 348.137 15.959 353.306 16.022 362.416 17.882 C 396.745 24.895 426.775 54.228 436.249 90.000 L 438.500 98.500 L 438.500 229.500 L 438.500 360.500 L 436.244 369.000 C 427.330 402.588 399.801 430.690 366.500 440.195 L 358.500 442.478 L 231.500 442.630 C 161.650 442.713 101.800 442.387 98.500 441.904 Z" fill="#FA550C" fill-rule="evenodd"/>
    <path d="M 94.999 383.498 C 91.813 375.117 81.242 315.891 77.441 285.118 L 76.776 279.735 L 80.591 280.451 C 86.633 281.585 91.775 284.710 95.113 289.277 C 99.364 295.094 99.836 296.571 102.534 312.500 C 105.848 332.063 111.604 360.938 112.337 361.670 C 112.673 362.007 124.323 362.839 138.224 363.519 C 165.407 364.849 167.860 365.345 174.925 370.941 C 176.987 372.574 179.723 375.886 181.004 378.301 C 185.314 386.426 187.638 386.000 139.007 386.000 L 95.950 386.000 L 94.999 383.498 Z M 222.487 385.154 C 222.219 384.886 222.000 376.712 222.000 366.990 L 222.000 349.314 L 202.250 348.638 C 169.992 347.534 135.369 342.743 127.862 338.346 C 115.347 331.015 129.296 324.627 167.303 320.287 C 189.843 317.712 268.275 317.725 289.000 320.306 C 314.345 323.462 328.636 327.504 331.443 332.311 C 335.878 339.906 302.008 346.931 252.750 348.632 L 233.000 349.314 L 233.000 367.706 L 233.000 386.099 L 227.987 385.870 C 225.230 385.744 222.755 385.422 222.487 385.154 Z M 273.664 385.304 C 270.090 384.362 274.753 374.777 281.049 370.122 C 287.016 365.710 291.523 364.890 317.354 363.515 C 331.024 362.787 342.558 361.811 342.984 361.346 C 343.410 360.880 344.508 356.450 345.425 351.500 C 346.341 346.550 347.515 340.475 348.035 338.000 C 348.554 335.525 350.361 325.470 352.050 315.657 C 355.433 295.996 356.008 293.990 359.602 289.277 C 364.366 283.031 378.008 277.366 377.993 281.639 C 377.962 290.651 362.231 379.831 359.907 384.174 C 359.042 385.791 355.942 385.913 317.237 385.853 C 294.282 385.817 274.674 385.570 273.664 385.304 Z M 200.783 271.250 C 186.269 253.238 169.866 232.875 164.331 226.000 C 148.170 205.925 141.585 193.030 138.520 175.452 C 131.325 134.195 153.616 92.697 191.238 77.308 C 214.258 67.893 238.755 67.482 261.193 76.135 C 287.503 86.281 310.695 113.210 315.371 139.041 L 316.012 142.582 L 304.463 145.531 C 291.663 148.799 291.728 148.816 290.509 142.065 C 288.034 128.354 273.203 110.595 258.000 103.135 C 218.708 83.855 171.939 105.306 163.396 146.525 C 159.367 165.964 164.163 184.656 177.645 202.056 C 190.862 219.115 228.201 264.996 228.826 264.948 C 229.469 264.898 257.761 229.264 274.297 207.678 C 282.179 197.389 288.918 185.078 290.978 177.202 L 292.103 172.904 L 300.301 182.561 C 304.811 187.873 308.891 193.035 309.368 194.032 C 310.697 196.808 304.049 209.130 294.152 222.233 C 276.877 245.104 229.210 304.000 227.974 304.000 C 227.533 304.000 215.297 289.262 200.783 271.250 Z" fill="#FAF7F2" fill-rule="evenodd"/>
    <path d="M 218.500 193.662 C 212.046 191.523 208.511 189.346 205.000 185.347 C 186.517 164.296 200.193 131.973 227.572 131.995 C 248.472 132.012 263.461 152.142 257.596 172.317 C 252.915 188.422 233.944 198.779 218.500 193.662 Z" fill="#181818" fill-rule="evenodd"/>
  </g>
</svg>
